<?xml version="1.0" encoding="UTF-8" standalone="no"?>
<svg width="34px" height="29px" viewBox="0 0 34 29" version="1.1" xmlns="http://www.w3.org/2000/svg" xmlns:xlink="http://www.w3.org/1999/xlink">
    <!-- Generator: Sketch 3.8.3 (29802) - http://www.bohemiancoding.com/sketch -->
    <title>Page 1</title>
    <desc>Created with Sketch.</desc>
    <defs></defs>
    <g id="Page-1" stroke="none" stroke-width="1" fill="none" fill-rule="evenodd">
        <path d="M32.532,4.2461 C31.336,4.7761 30.05,5.1341 28.7,5.2981 C30.077,4.4661 31.137,3.1601 31.636,1.6001 C30.343,2.3671 28.915,2.9271 27.393,3.2231 C26.175,1.9231 24.443,1.1121 22.522,1.1121 C18.837,1.1121 15.852,4.1011 15.852,7.7921 C15.852,8.3101 15.909,8.8211 16.021,9.3101 C10.475,9.0291 5.559,6.3731 2.267,2.3381 C1.69,3.3231 1.361,4.4661 1.361,5.6901 C1.361,8.0071 2.541,10.0491 4.329,11.2491 C3.236,11.2141 2.209,10.9131 1.305,10.4101 L1.305,10.4931 C1.305,13.7281 3.608,16.4271 6.661,17.0391 C6.102,17.1931 5.512,17.2741 4.902,17.2741 C4.471,17.2741 4.054,17.2321 3.647,17.1571 C4.495,19.8091 6.961,21.7351 9.883,21.7931 C7.599,23.5821 4.721,24.6511 1.592,24.6511 C1.054,24.6511 0.524,24.6171 0,24.5531 C2.955,26.4481 6.466,27.5521 10.231,27.5521 C22.509,27.5521 29.219,17.3821 29.219,8.5631 C29.219,8.2741 29.216,7.9861 29.199,7.7001 C30.506,6.7611 31.64,5.5811 32.532,4.2461 L32.532,4.2461 Z" stroke="#06918F"></path>
    </g>
</svg>